{
  "accessors": [
    {
      "bufferView": 1,
      "componentType": 5126,
      "count": 149,
      "max": [
        0.22300420701503754,
        0.38759559392929077,
        0.35062518715858459
      ],
      "min": [
        -0.24699580669403076,
        -0.38240471482276917,
        -0.59937477111816406
      ],
      "type": "VEC3"
    },
    {
      "bufferView": 1,
      "byteOffset": 1788,
      "componentType": 5126,
      "count": 149,
      "max": [
        1,
        1,
        1
      ],
      "min": [
        -1,
        -1,
        -1
      ],
      "type": "VEC3"
    },
    {
      "bufferView": 2,
      "componentType": 5126,
      "count": 149,
      "max": [
        0.44721388816833496,
        0.94174206256866455,
        0.89442747831344604,
        -1
      ],
      "min": [
        -0.44721397757530212,
        -0.9417426586151123,
        -1,
        -1
      ],
      "type": "VEC4"
    },
    {
      "bufferView": 0,
      "componentType": 5125,
      "count": 225,
      "max": [
        148
      ],
      "min": [
        0
      ],
      "type": "SCALAR"
    },
    {
      "bufferView": 1,
      "byteOffset": 3576,
      "componentType": 5126,
      "count": 96,
      "max": [
        0.25300389528274536,
        0.31759580969810486,
        0.36062508821487427
      ],
      "min": [
        -0.17699620127677917,
        -0.31240451335906982,
        -0.65937501192092896
      ],
      "type": "VEC3"
    },
    {
      "bufferView": 1,
      "byteOffset": 4728,
      "componentType": 5126,
      "count": 96,
      "max": [
        1,
        1,
        1
      ],
      "min": [
        -1,
        -1,
        -1
      ],
      "type": "VEC3"
    },
    {
      "bufferView": 2,
      "byteOffset": 2384,
      "componentType": 5126,
      "count": 96,
      "max": [
        0.44721424579620361,
        0.94174307584762573,
        0.89442753791809082,
        -1
      ],
      "min": [
        -0.44721612334251404,
        -0.94174331426620483,
        -0.89442771673202515,
        -1
      ],
      "type": "VEC4"
    },
    {
      "bufferView": 0,
      "byteOffset": 900,
      "componentType": 5125,
      "count": 144,
      "max": [
        95
      ],
      "min": [
        0
      ],
      "type": "SCALAR"
    },
    {
      "bufferView": 1,
      "byteOffset": 5880,
      "componentType": 5126,
      "count": 392,
      "max": [
        0.25300449132919312,
        0.21759599447250366,
        0.37062740325927734
      ],
      "min": [
        -0.21699610352516174,
        -0.21240429580211639,
        -0.57937592267990112
      ],
      "type": "VEC3"
    },
    {
      "bufferView": 1,
      "byteOffset": 10584,
      "componentType": 5126,
      "count": 392,
      "max": [
        1,
        1,
        1
      ],
      "min": [
        -1,
        -1,
        -1
      ],
      "type": "VEC3"
    },
    {
      "bufferView": 2,
      "byteOffset": 3920,
      "componentType": 5126,
      "count": 392,
      "max": [
        0.51885104179382324,
        0.95168083906173706,
        0.894428551197052,
        -1
      ],
      "min": [
        -0.44721588492393494,
        -0.94771766662597656,
        -0.89442908763885498,
        -1
      ],
      "type": "VEC4"
    },
    {
      "bufferView": 0,
      "byteOffset": 1476,
      "componentType": 5125,
      "count": 576,
      "max": [
        391
      ],
      "min": [
        0
      ],
      "type": "SCALAR"
    },
    {
      "bufferView": 1,
      "byteOffset": 15288,
      "componentType": 5126,
      "count": 1536,
      "max": [
        0.49300459027290344,
        0.39759650826454163,
        0.49141138792037964
      ],
      "min": [
        -0.25699570775032043,
        -0.39240440726280212,
        -0.62912321090698242
      ],
      "type": "VEC3"
    },
    {
      "bufferView": 1,
      "byteOffset": 33720,
      "componentType": 5126,
      "count": 1536,
      "max": [
        1,
        1,
        1
      ],
      "min": [
        -1,
        -1,
        -1
      ],
      "type": "VEC3"
    },
    {
      "bufferView": 2,
      "byteOffset": 10192,
      "componentType": 5126,
      "count": 1536,
      "max": [
        0.52284026145935059,
        0.94638693332672119,
        0.90337800979614258,
        -1
      ],
      "min": [
        -0.52084833383560181,
        -0.95176100730895996,
        -0.89442980289459229,
        -1
      ],
      "type": "VEC4"
    },
    {
      "bufferView": 0,
      "byteOffset": 3780,
      "componentType": 5125,
      "count": 2370,
      "max": [
        1535
      ],
      "min": [
        0
      ],
      "type": "SCALAR"
    },
    {
      "bufferView": 1,
      "byteOffset": 52152,
      "componentType": 5126,
      "count": 626,
      "max": [
        0.23300430178642273,
        0.3675960898399353,
        0.35062530636787415
      ],
      "min": [
        -0.22699609398841858,
        -0.3624052107334137,
        -0.28937500715255737
      ],
      "type": "VEC3"
    },
    {
      "bufferView": 1,
      "byteOffset": 59664,
      "componentType": 5126,
      "count": 626,
      "max": [
        1,
        1,
        1
      ],
      "min": [
        -1,
        -1,
        -1
      ],
      "type": "VEC3"
    },
    {
      "bufferView": 2,
      "byteOffset": 34768,
      "componentType": 5126,
      "count": 626,
      "max": [
        0.51885151863098145,
        0.95189136266708374,
        0.89442968368530273,
        -1
      ],
      "min": [
        -0.51885038614273071,
        -0.95168179273605347,
        -0.89442968368530273,
        -1
      ],
      "type": "VEC4"
    },
    {
      "bufferView": 0,
      "byteOffset": 13260,
      "componentType": 5125,
      "count": 894,
      "max": [
        625
      ],
      "min": [
        0
      ],
      "type": "SCALAR"
    }
  ],
  "asset": {
    "extras": {
      "author": "Alex Safayan (https://sketchfab.com/alexsafayan)",
      "license": "CC-BY-4.0 (http://creativecommons.org/licenses/by/4.0/)",
      "source": "https://sketchfab.com/models/11935a8ea6c54fcaa94c6e090048271d",
      "title": "Low Poly Backpack"
    },
    "generator": "Sketchfab-3.18.0",
    "version": "2.0"
  },
  "bufferViews": [
    {
      "buffer": 0,
      "byteLength": 16836,
      "byteOffset": 0,
      "name": "floatBufferViews",
      "target": 34963
    },
    {
      "buffer": 0,
      "byteLength": 67176,
      "byteOffset": 16836,
      "byteStride": 12,
      "name": "floatBufferViews",
      "target": 34962
    },
    {
      "buffer": 0,
      "byteLength": 44784,
      "byteOffset": 84012,
      "byteStride": 16,
      "name": "floatBufferViews",
      "target": 34962
    }
  ],
  "buffers": [
    {
      "byteLength": 128796,
      "uri": "scene.bin"
    }
  ],
  "materials": [
    {
      "doubleSided": true,
      "emissiveFactor": [
        0,
        0,
        0
      ],
      "name": "mat10",
      "pbrMetallicRoughness": {
        "baseColorFactor": [
          0.29999999999999999,
          0.68999999999999995,
          0.31,
          1
        ],
        "metallicFactor": 0,
        "roughnessFactor": 1
      }
    },
    {
      "doubleSided": true,
      "emissiveFactor": [
        0,
        0,
        0
      ],
      "name": "mat17",
      "pbrMetallicRoughness": {
        "baseColorFactor": [
          0.27000000000000002,
          0.34999999999999998,
          0.39000000000000001,
          1
        ],
        "metallicFactor": 0,
        "roughnessFactor": 1
      }
    },
    {
      "doubleSided": true,
      "emissiveFactor": [
        0,
        0,
        0
      ],
      "name": "mat20",
      "pbrMetallicRoughness": {
        "baseColorFactor": [
          0.46999999999999997,
          0.33000000000000002,
          0.28000000000000003,
          1
        ],
        "metallicFactor": 0,
        "roughnessFactor": 1
      }
    },
    {
      "doubleSided": true,
      "emissiveFactor": [
        0,
        0,
        0
      ],
      "name": "mat23",
      "pbrMetallicRoughness": {
        "baseColorFactor": [
          0.10000000000000001,
          0.10000000000000001,
          0.10000000000000001,
          1
        ],
        "metallicFactor": 0,
        "roughnessFactor": 1
      }
    },
    {
      "doubleSided": true,
      "emissiveFactor": [
        0,
        0,
        0
      ],
      "name": "mat9",
      "pbrMetallicRoughness": {
        "baseColorFactor": [
          0.55000000000000004,
          0.76000000000000001,
          0.28999999999999998,
          1
        ],
        "metallicFactor": 0,
        "roughnessFactor": 1
      }
    }
  ],
  "meshes": [
    {
      "primitives": [
        {
          "attributes": {
            "NORMAL": 1,
            "POSITION": 0,
            "TANGENT": 2
          },
          "indices": 3,
          "material": 0,
          "mode": 4
        }
      ]
    },
    {
      "primitives": [
        {
          "attributes": {
            "NORMAL": 5,
            "POSITION": 4,
            "TANGENT": 6
          },
          "indices": 7,
          "material": 1,
          "mode": 4
        }
      ]
    },
    {
      "primitives": [
        {
          "attributes": {
            "NORMAL": 9,
            "POSITION": 8,
            "TANGENT": 10
          },
          "indices": 11,
          "material": 2,
          "mode": 4
        }
      ]
    },
    {
      "primitives": [
        {
          "attributes": {
            "NORMAL": 13,
            "POSITION": 12,
            "TANGENT": 14
          },
          "indices": 15,
          "material": 3,
          "mode": 4
        }
      ]
    },
    {
      "primitives": [
        {
          "attributes": {
            "NORMAL": 17,
            "POSITION": 16,
            "TANGENT": 18
          },
          "indices": 19,
          "material": 4,
          "mode": 4
        }
      ]
    }
  ],
  "nodes": [
    {
      "children": [
        1
      ],
      "name": "RootNode (gltf orientation matrix)",
      "rotation": [
        -0.70710678118654746,
        -0,
        -0,
        0.70710678118654757
      ]
    },
    {
      "children": [
        2
      ],
      "name": "RootNode (model correction matrix)"
    },
    {
      "children": [
        3,
        4,
        5,
        6,
        7
      ],
      "name": "model.obj.cleaner.materialmerger.gles"
    },
    {
      "mesh": 0,
      "name": ""
    },
    {
      "mesh": 1,
      "name": ""
    },
    {
      "mesh": 2,
      "name": ""
    },
    {
      "mesh": 3,
      "name": ""
    },
    {
      "mesh": 4,
      "name": ""
    }
  ],
  "scene": 0,
  "scenes": [
    {
      "name": "OSG_Scene",
      "nodes": [
        0
      ]
    }
  ]
}

