{
  "accessors": [
    {
      "bufferView": 1,
      "componentType": 5126,
      "count": 597,
      "max": [
        55.010395050048828,
        5.9393272399902344,
        68.453994750976562
      ],
      "min": [
        -34.645565032958984,
        5.654548168182373,
        18.938686370849609
      ],
      "type": "VEC3"
    },
    {
      "bufferView": 1,
      "byteOffset": 7164,
      "componentType": 5126,
      "count": 597,
      "max": [
        1,
        1,
        1
      ],
      "min": [
        -1,
        -1,
        -1
      ],
      "type": "VEC3"
    },
    {
      "bufferView": 2,
      "componentType": 5126,
      "count": 597,
      "max": [
        3.8520394696206495e-07,
        1,
        1,
        1
      ],
      "min": [
        -3.8520391854035552e-07,
        -1,
        -1,
        1
      ],
      "type": "VEC4"
    },
    {
      "bufferView": 0,
      "componentType": 5125,
      "count": 900,
      "max": [
        596
      ],
      "min": [
        0
      ],
      "type": "SCALAR"
    },
    {
      "bufferView": 1,
      "byteOffset": 14328,
      "componentType": 5126,
      "count": 6291,
      "max": [
        35.343990325927734,
        19.822116851806641,
        2.4174580574035645
      ],
      "min": [
        -15.43817138671875,
        -3.6284027099609375,
        0
      ],
      "type": "VEC3"
    },
    {
      "bufferView": 1,
      "byteOffset": 89820,
      "componentType": 5126,
      "count": 6291,
      "max": [
        0.97532624006271362,
        1,
        1
      ],
      "min": [
        -0.97532576322555542,
        -1,
        -1
      ],
      "type": "VEC3"
    },
    {
      "bufferView": 2,
      "byteOffset": 9552,
      "componentType": 5126,
      "count": 6291,
      "max": [
        1,
        0.97532618045806885,
        0.99372965097427368,
        1
      ],
      "min": [
        -1,
        -1,
        -0.9937288761138916,
        -1
      ],
      "type": "VEC4"
    },
    {
      "bufferView": 0,
      "byteOffset": 3600,
      "componentType": 5125,
      "count": 6468,
      "max": [
        6290
      ],
      "min": [
        0
      ],
      "type": "SCALAR"
    },
    {
      "bufferView": 1,
      "byteOffset": 165312,
      "componentType": 5126,
      "count": 22546,
      "max": [
        61.827491760253906,
        9.051544189453125,
        73.806991577148438
      ],
      "min": [
        -40.914497375488281,
        5.4253554344177246,
        9.3414306640625
      ],
      "type": "VEC3"
    },
    {
      "bufferView": 1,
      "byteOffset": 435864,
      "componentType": 5126,
      "count": 22546,
      "max": [
        1,
        1,
        1
      ],
      "min": [
        -1,
        -1,
        -1
      ],
      "type": "VEC3"
    },
    {
      "bufferView": 2,
      "byteOffset": 110208,
      "componentType": 5126,
      "count": 22546,
      "max": [
        1,
        1,
        0.99999707937240601,
        1
      ],
      "min": [
        -1,
        -1,
        -0.99999904632568359,
        -1
      ],
      "type": "VEC4"
    },
    {
      "bufferView": 0,
      "byteOffset": 29472,
      "componentType": 5125,
      "count": 27759,
      "max": [
        22545
      ],
      "min": [
        0
      ],
      "type": "SCALAR"
    },
    {
      "bufferView": 1,
      "byteOffset": 706416,
      "componentType": 5126,
      "count": 4871,
      "max": [
        16.596599578857422,
        10.341912269592285,
        22.403593063354492
      ],
      "min": [
        3.441655158996582,
        9.0598611831665039,
        -1.1386890411376953
      ],
      "type": "VEC3"
    },
    {
      "bufferView": 1,
      "byteOffset": 764868,
      "componentType": 5126,
      "count": 4871,
      "max": [
        1,
        1,
        1
      ],
      "min": [
        -1,
        -1,
        -1
      ],
      "type": "VEC3"
    },
    {
      "bufferView": 2,
      "byteOffset": 470944,
      "componentType": 5126,
      "count": 4871,
      "max": [
        1,
        1,
        0.01858251541852951,
        1
      ],
      "min": [
        -1,
        -1,
        -0.0023484446574002504,
        1
      ],
      "type": "VEC4"
    },
    {
      "bufferView": 0,
      "byteOffset": 140508,
      "componentType": 5125,
      "count": 6012,
      "max": [
        4870
      ],
      "min": [
        0
      ],
      "type": "SCALAR"
    },
    {
      "bufferView": 1,
      "byteOffset": 823320,
      "componentType": 5126,
      "count": 2326,
      "max": [
        25.118839263916016,
        10.341912269592285,
        37.501167297363281
      ],
      "min": [
        -5.0805854797363281,
        9.0598611831665039,
        22.401453018188477
      ],
      "type": "VEC3"
    },
    {
      "bufferView": 1,
      "byteOffset": 851232,
      "componentType": 5126,
      "count": 2326,
      "max": [
        1,
        1,
        1
      ],
      "min": [
        -1,
        -1,
        -1
      ],
      "type": "VEC3"
    },
    {
      "bufferView": 2,
      "byteOffset": 548880,
      "componentType": 5126,
      "count": 2326,
      "max": [
        1,
        1,
        0.009856286458671093,
        1
      ],
      "min": [
        -1,
        -1,
        -0.0032962318509817123,
        1
      ],
      "type": "VEC4"
    },
    {
      "bufferView": 0,
      "byteOffset": 164556,
      "componentType": 5125,
      "count": 3204,
      "max": [
        2325
      ],
      "min": [
        0
      ],
      "type": "SCALAR"
    }
  ],
  "asset": {
    "extras": {
      "author": "erdoganesia (https://sketchfab.com/erdoganesia)",
      "license": "CC-BY-4.0 (http://creativecommons.org/licenses/by/4.0/)",
      "source": "https://sketchfab.com/models/40c2bb3dd9884b3b881d5d577d7d9746",
      "title": "Simple Monitor"
    },
    "generator": "Sketchfab-3.18.6",
    "version": "2.0"
  },
  "bufferViews": [
    {
      "buffer": 0,
      "byteLength": 177372,
      "byteOffset": 0,
      "name": "floatBufferViews",
      "target": 34963
    },
    {
      "buffer": 0,
      "byteLength": 879144,
      "byteOffset": 177372,
      "byteStride": 12,
      "name": "floatBufferViews",
      "target": 34962
    },
    {
      "buffer": 0,
      "byteLength": 586096,
      "byteOffset": 1056516,
      "byteStride": 16,
      "name": "floatBufferViews",
      "target": 34962
    }
  ],
  "buffers": [
    {
      "byteLength": 1642612,
      "uri": "scene.bin"
    }
  ],
  "materials": [
    {
      "doubleSided": true,
      "emissiveFactor": [
        0,
        0,
        0
      ],
      "name": "14_-_Default",
      "pbrMetallicRoughness": {
        "baseColorFactor": [
          0,
          0,
          0,
          1
        ],
        "metallicFactor": 0,
        "roughnessFactor": 0.84189280339999994
      }
    },
    {
      "doubleSided": true,
      "emissiveFactor": [
        0,
        0,
        0
      ],
      "name": "15_-_Default",
      "pbrMetallicRoughness": {
        "baseColorFactor": [
          0.087139999999999995,
          0.085461899999999993,
          0.080541399999999999,
          1
        ],
        "metallicFactor": 0,
        "roughnessFactor": 0.84189280339999994
      }
    }
  ],
  "meshes": [
    {
      "name": "Box004_14 - Default_0",
      "primitives": [
        {
          "attributes": {
            "NORMAL": 1,
            "POSITION": 0,
            "TANGENT": 2
          },
          "indices": 3,
          "material": 0,
          "mode": 4
        }
      ]
    },
    {
      "name": "Cylinder01_15 - Default_0",
      "primitives": [
        {
          "attributes": {
            "NORMAL": 5,
            "POSITION": 4,
            "TANGENT": 6
          },
          "indices": 7,
          "material": 1,
          "mode": 4
        }
      ]
    },
    {
      "name": "Box001_15 - Default_0",
      "primitives": [
        {
          "attributes": {
            "NORMAL": 9,
            "POSITION": 8,
            "TANGENT": 10
          },
          "indices": 11,
          "material": 1,
          "mode": 4
        }
      ]
    },
    {
      "name": "Box003_15 - Default_0",
      "primitives": [
        {
          "attributes": {
            "NORMAL": 13,
            "POSITION": 12,
            "TANGENT": 14
          },
          "indices": 15,
          "material": 1,
          "mode": 4
        }
      ]
    },
    {
      "name": "Box002_15 - Default_0",
      "primitives": [
        {
          "attributes": {
            "NORMAL": 17,
            "POSITION": 16,
            "TANGENT": 18
          },
          "indices": 19,
          "material": 1,
          "mode": 4
        }
      ]
    }
  ],
  "nodes": [
    {
      "children": [
        1
      ],
      "name": "RootNode (gltf orientation matrix)",
      "rotation": [
        -0.70710678118654746,
        -0,
        -0,
        0.70710678118654757
      ]
    },
    {
      "children": [
        2
      ],
      "name": "RootNode (model correction matrix)"
    },
    {
      "children": [
        3
      ],
      "matrix": [
        1,
        0,
        0,
        0,
        0,
        0,
        1,
        0,
        0,
        -1,
        0,
        0,
        0,
        0,
        0,
        1
      ],
      "name": "c532545205f84dd1bb52585a8aa14899.fbx"
    },
    {
      "children": [
        4,
        6,
        8
      ],
      "name": "RootNode"
    },
    {
      "children": [
        5
      ],
      "matrix": [
        1,
        0,
        0,
        0,
        0,
        -1.6292067939183141e-07,
        -0.99999999999998679,
        0,
        0,
        0.99999999999998679,
        -1.6292067939183141e-07,
        0,
        3.749098539352417,
        0,
        0,
        1
      ],
      "name": "Box004"
    },
    {
      "mesh": 0,
      "name": "Box004_14 - Default_0"
    },
    {
      "children": [
        7
      ],
      "matrix": [
        1,
        0,
        0,
        0,
        0,
        -1.6292067939183141e-07,
        -0.99999999999998679,
        0,
        0,
        0.99999999999998679,
        -1.6292067939183141e-07,
        0,
        3.749098539352417,
        0,
        0,
        1
      ],
      "name": "Cylinder01"
    },
    {
      "mesh": 1,
      "name": "Cylinder01_15 - Default_0"
    },
    {
      "children": [
        9,
        10,
        12
      ],
      "matrix": [
        1,
        0,
        0,
        0,
        0,
        -1.6292067939183141e-07,
        -0.99999999999998679,
        0,
        0,
        0.99999999999998679,
        -1.6292067939183141e-07,
        0,
        3.749098539352417,
        0,
        0,
        1
      ],
      "name": "Box001"
    },
    {
      "mesh": 2,
      "name": "Box001_15 - Default_0"
    },
    {
      "children": [
        11
      ],
      "matrix": [
        0.35081255435943604,
        0,
        0,
        0,
        0,
        0.80535030364990234,
        -2.6469779601696883e-23,
        0,
        0,
        4.1269598019205009e-23,
        1.2556388378143311,
        0,
        7.8726949691772461,
        2.4624369144439697,
        1.8259506225585938,
        1
      ],
      "name": "Box003"
    },
    {
      "mesh": 3,
      "name": "Box003_15 - Default_0"
    },
    {
      "children": [
        13
      ],
      "matrix": [
        1,
        0,
        0,
        0,
        0,
        1,
        -2.646977960169688e-23,
        0,
        0,
        2.646977960169688e-23,
        1,
        0,
        -0.43737030029296875,
        -0.059820175170898438,
        13.06002140045166,
        1
      ],
      "name": "Box002"
    },
    {
      "mesh": 4,
      "name": "Box002_15 - Default_0"
    }
  ],
  "scene": 0,
  "scenes": [
    {
      "name": "OSG_Scene",
      "nodes": [
        0
      ]
    }
  ]
}

